<?xml version="1.0" encoding="utf-8"?>
<!-- Generator: Adobe Illustrator 24.2.0, SVG Export Plug-In . SVG Version: 6.00 Build 0)  -->
<svg version="1.1" xmlns="http://www.w3.org/2000/svg" xmlns:xlink="http://www.w3.org/1999/xlink" x="0px" y="0px"
	 viewBox="0 0 1366 768" style="enable-background:new 0 0 1366 768;" xml:space="preserve">
<style type="text/css">
	.st0{display:none;}
	.st1{display:inline;}
	.st2{display:inline;fill:none;}
	.st3{stroke:#FFFFFF;}
	.st4{font-family:'MyriadPro-Regular';}
	.st5{font-size:12px;}
	.st6{display:inline;fill:none;stroke:#FFFFFF;stroke-miterlimit:10;}
	.st7{fill:none;stroke:#FFFFFF;stroke-miterlimit:10;}
	.st8{display:inline;fill:none;stroke:url(#SVGID_1_);stroke-width:2;stroke-miterlimit:10;}
	.st9{display:inline;fill:none;stroke:url(#SVGID_2_);stroke-width:2;stroke-miterlimit:10;}
	.st10{display:inline;fill:none;stroke:url(#SVGID_3_);stroke-width:2;stroke-miterlimit:10;}
	.st11{display:inline;fill:none;stroke:url(#SVGID_4_);stroke-width:2;stroke-miterlimit:10;}
	.st12{display:inline;fill:none;stroke:url(#SVGID_5_);stroke-width:2;stroke-miterlimit:10;}
	.st13{display:inline;fill:none;stroke:url(#SVGID_6_);stroke-width:2;stroke-miterlimit:10;}
	.st14{display:inline;fill:none;stroke:url(#SVGID_7_);stroke-width:2;stroke-miterlimit:10;}
	.st15{display:inline;fill:none;stroke:url(#SVGID_8_);stroke-width:2;stroke-miterlimit:10;}
	.st16{display:inline;fill:none;stroke:url(#SVGID_9_);stroke-width:2;stroke-miterlimit:10;}
	.st17{display:inline;fill:none;stroke:url(#SVGID_10_);stroke-width:2;stroke-miterlimit:10;}
	.st18{display:inline;fill:none;stroke:url(#SVGID_11_);stroke-width:2;stroke-miterlimit:10;}
	.st19{fill:url(#SVGID_12_);}
</style>
<g id="Layer_2" class="st0">
	<rect class="st1" width="1366" height="768"/>
	<rect x="118.79" y="62.47" class="st2" width="351.58" height="147.37"/>
	<text transform="matrix(1 0 0 1 118.7896 70.9937)" class="st3 st4 st5">robot hand with pulsating lines extending</text>
</g>
<g id="Layer_1" class="st0">
	<path class="st6" d="M521.15,392.97"/>
	<path class="st6" d="M515.36,394.09"/>
	<g>
		<polygon class="st6" points="497.99,383 501.99,384 503.99,383 505.82,380 501.2,347.39 541.15,341.62 547,374.2 549,376.2 
			551,377.2 554,376.2 556,373.2 557.87,364.5 554.51,344.77 543.8,334.35 533.79,288.25 531.53,288.58 533.09,303.08 528,307 
			502,311 495.5,308.5 493.42,294.1 490.35,294.42 496,341.62 489,357 491.58,374.87 		"/>
		<polygon class="st6" points="502,310.7 500.4,295.15 512.4,293.15 514.56,309.07 		"/>
		<path class="st6" d="M500.7,275.01"/>
		<polyline class="st6" points="500.7,275.01 496.56,275.6 494.72,274.56 490.77,238.06 491.77,236.11 515.91,233.07 517.45,234.1 
			523.26,270.56 522.2,271.99 518.16,272.56 		"/>
		<polyline class="st6" points="501.15,348.75 502.58,310.91 527.68,307.05 523.95,291.55 512.4,293.15 		"/>
		<line class="st6" x1="541.14" y1="341.62" x2="527.5" y2="306.5"/>
		<path class="st6" d="M522.2,291.59l-20.46,2.62c-2.19,0.28-4.2-1.27-4.48-3.46l-0.77-6.01c-0.28-2.19,1.27-4.2,3.46-4.48
			l20.46-2.62c2.19-0.28,4.2,1.27,4.48,3.46l0.77,6.01C525.94,289.3,524.39,291.31,522.2,291.59z"/>
		<path class="st6" d="M543.91,379.06"/>
		<path class="st6" d="M509.71,383.17"/>
		<g class="st1">
			<path class="st7" d="M508.86,366.51c-2.1,0.2-4.01-1.28-4.33-3.39l-1.48-9.86c-0.33-2.18,1.18-4.22,3.36-4.55l30.18-4.53
				c2.18-0.33,4.22,1.18,4.55,3.36l1.48,9.86c0.33,2.18-1.18,4.22-3.36,4.55"/>
			<polyline class="st7" points="505.82,348.84 509.83,375.93 518.91,374.3 517.37,363.23 			"/>
			<polyline class="st7" points="536.93,344.23 540.79,371.33 531.62,372.36 529.95,361.3 			"/>
			<line class="st7" x1="521.6" y1="346.43" x2="524.25" y2="364.2"/>
			<line class="st7" x1="517.28" y1="365.23" x2="530.35" y2="363.77"/>
		</g>
		<polygon class="st6" points="528.24,306.5 524.9,277.87 524.07,276.51 523.57,272.67 524.3,270.95 528.24,270.33 529.3,271.26 
			529.81,275.72 529.39,277.19 532.66,302.79 		"/>
		<polygon class="st6" points="495.5,308.5 491.93,282.13 490.8,280.56 490.35,276.66 491.12,274.75 494.37,274.53 495.6,275.46 
			496.18,279.92 495.69,281.39 499.9,309.97 		"/>
		<line class="st6" x1="504.5" y1="274.37" x2="502.52" y2="274.63"/>
		<path class="st6" d="M504.5,274.37"/>
		<polyline class="st6" points="502.52,274.63 501.35,274.79 502.9,271.49 514.6,270.04 517.33,272.64 514.43,273.03 		"/>
		<polygon class="st6" points="504.95,279.48 504.35,272.75 513.8,271.6 515.13,278.17 		"/>
		<path class="st6" d="M524.47,233.53c0,0,5.33,28.8,6.13,31.73c0.8,2.93,2.06,3.47,2.06,3.47l-1.93,2.27l-7.47-3.73l-5.32-33.7
			l1.45-4.67L524.47,233.53"/>
		<path class="st6" d="M524.6,233.07c0,0,3.84-5.43,1-12.17c-2.84-6.73-6.87-21.57-11.51-34.77c-1.11-3.16-8.45-10.9-22.49-6.87
			c-6.69,1.92-8.87,4.9-9.99,7.47c-2.02,4.62-3.09,42.89-2.74,44.37c0,0,0.6,4.1,1.77,6.03s2.63,3.47,2.63,3.47l4.21-8.53
			l-0.77-21.5l2.87-2.67l19.63-2.1l4.11,2.7l6.19,19.9L524.6,233.07z"/>
		<path class="st6" d="M530.73,271.21"/>
		<path class="st6" d="M530.73,271.21l1.93-2.48l2.04,1.31c0,0,2.85,9.49,2.15,20.16l-2.28,1.64"/>
		<path class="st6" d="M483.45,240.68c0,0,3.14,29.12,3.21,32.16s-0.98,3.91-0.98,3.91l2.49,1.62l6.09-5.72l-4.56-33.81l-2.73-4.05
			L483.45,240.68"/>
		<path class="st6" d="M488.24,278.58l-2.56-1.82l-1.58,1.84c0,0-0.01,9.91,3.71,19.93l2.65,0.92"/>
	</g>
	<g class="st1">
		<g>
			<polygon class="st7" points="736.02,364.31 740.02,365.41 742.02,364.31 743.85,360.99 739.23,324.95 779.17,318.57 
				785.03,354.58 787.03,356.79 789.03,357.9 792.03,356.79 794.03,353.47 795.9,343.86 792.54,322.05 781.83,310.53 771.82,259.58 
				769.55,259.95 771.12,275.97 766.03,280.31 740.03,284.73 733.53,281.97 731.45,266.05 728.38,266.4 734.03,318.57 
				727.03,335.57 729.61,355.32 			"/>
			<polygon class="st7" points="740.03,284.4 738.43,267.21 750.43,265 752.59,282.59 			"/>
			<path class="st7" d="M738.73,244.96"/>
			<polyline class="st7" points="738.73,244.96 734.59,245.6 732.75,244.45 728.8,204.11 729.8,201.96 753.94,198.59 755.48,199.73 
				761.29,240.03 760.23,241.61 756.19,242.24 			"/>
			<polyline class="st7" points="739.17,326.45 740.61,284.63 765.71,280.36 761.98,263.23 750.43,265 			"/>
			<line class="st7" x1="779.17" y1="318.57" x2="765.53" y2="279.76"/>
			<path class="st7" d="M759.17,375.33"/>
			<path class="st7" d="M753.39,376.57"/>
			<path class="st7" d="M760.22,263.27l-20.46,2.9c-2.19,0.31-4.2-1.4-4.48-3.82l-0.77-6.64c-0.28-2.42,1.27-4.64,3.46-4.95
				l20.46-2.9c2.19-0.31,4.2,1.4,4.48,3.82l0.77,6.64C763.96,260.75,762.42,262.96,760.22,263.27z"/>
			<path class="st7" d="M781.94,359.96"/>
			<path class="st7" d="M747.74,364.49"/>
			<g>
				<path class="st7" d="M746.89,346.08c-2.1,0.22-4.01-1.41-4.33-3.74l-1.48-10.9c-0.33-2.41,1.18-4.67,3.36-5.03l30.18-5.01
					c2.18-0.36,4.22,1.3,4.55,3.71l1.48,10.9c0.33,2.41-1.18,4.67-3.36,5.03"/>
				<polyline class="st7" points="743.85,326.55 747.86,356.49 756.93,354.69 755.39,342.45 				"/>
				<polyline class="st7" points="774.96,321.45 778.81,351.41 769.65,352.54 767.98,340.32 				"/>
				<line class="st7" x1="759.63" y1="323.88" x2="762.28" y2="343.53"/>
				<line class="st7" x1="755.31" y1="344.66" x2="768.38" y2="343.05"/>
			</g>
			<polygon class="st7" points="766.26,279.76 762.93,248.12 762.1,246.61 761.6,242.36 762.33,240.47 766.26,239.77 767.33,240.81 
				767.84,245.74 767.42,247.36 770.69,275.65 			"/>
			<polygon class="st7" points="733.53,281.97 729.96,252.82 728.83,251.09 728.38,246.78 729.14,244.67 732.39,244.42 
				733.62,245.45 734.21,250.38 733.72,252 737.93,283.59 			"/>
			<line class="st7" x1="742.53" y1="244.24" x2="740.55" y2="244.54"/>
			<path class="st7" d="M742.53,244.24"/>
			<polyline class="st7" points="740.55,244.54 739.38,244.71 740.93,241.06 752.63,239.46 755.36,242.33 752.46,242.76 			"/>
			<polygon class="st7" points="742.98,249.89 742.38,242.45 751.83,241.18 753.15,248.45 			"/>
			<path class="st7" d="M762.5,199.11c0,0,5.33,31.83,6.13,35.07c0.8,3.24,2.06,3.83,2.06,3.83l-1.93,2.51l-7.47-4.13l-5.32-37.25
				l1.45-5.16L762.5,199.11"/>
			<path class="st7" d="M762.63,198.59c0,0,3.84-6.01,1-13.45c-2.84-7.44-6.87-23.84-11.51-38.43c-1.11-3.49-8.45-12.05-22.49-7.59
				c-6.69,2.12-8.87,5.42-9.99,8.25c-2.02,5.1-3.09,47.41-2.74,49.04c0,0,0.6,4.53,1.77,6.67c1.17,2.14,2.63,3.83,2.63,3.83
				l4.21-9.43l-0.77-23.77l2.87-2.95l19.63-2.32l4.11,2.98l6.19,22L762.63,198.59z"/>
			<path class="st7" d="M768.76,240.76"/>
			<path class="st7" d="M768.76,240.76l1.93-2.74l2.04,1.45c0,0,2.85,10.49,2.15,22.28l-2.28,1.82"/>
			<path class="st7" d="M721.47,207.01c0,0,3.14,32.19,3.21,35.55c0.07,3.36-0.98,4.32-0.98,4.32l2.49,1.79l6.09-6.32l-4.56-37.37
				L725,200.5L721.47,207.01"/>
			<path class="st7" d="M726.27,248.9l-2.56-2.01l-1.58,2.03c0,0-0.01,10.95,3.71,22.03l2.65,1.02"/>
			<polygon class="st7" points="733.77,201.44 731.93,181.98 730.97,182.07 730.41,181.5 730.04,177.79 730.69,176.31 
				735.45,175.78 736.36,177 736.68,180.4 736.28,181.38 735.4,181.48 737.53,201.01 			"/>
			<polygon class="st7" points="745.26,199.61 743.04,180.2 742.08,180.31 741.51,179.76 741.07,176.06 741.69,174.56 
				746.43,173.92 747.37,175.12 747.76,178.51 747.38,179.49 746.5,179.62 749.02,199.09 			"/>
			<line class="st7" x1="736.68" y1="180.4" x2="741.51" y2="179.76"/>
			<line class="st7" x1="736.36" y1="177" x2="741.07" y2="176.06"/>
		</g>
		<g>
			<polygon class="st7" points="808.4,354.08 812.21,355.82 814.33,355.06 816.59,352.11 816.87,315.93 857.23,316.2 858.17,352.53 
				859.85,355.03 861.68,356.45 864.8,355.85 867.22,352.92 870.36,343.77 869.98,321.8 860.94,308.73 857.9,257.02 855.61,257.01 
				855.01,273.02 849.38,276.44 823.08,276.54 817.02,272.76 817.11,256.78 814.03,256.63 812.59,308.82 803.38,324.38 
				803.27,344.21 			"/>
			<polygon class="st7" points="823.12,276.21 823.85,259.06 836.02,258.85 835.78,276.49 			"/>
			<path class="st7" d="M827.15,237.24"/>
			<polyline class="st7" points="827.15,237.24 822.96,237.2 821.3,235.77 822.82,195.48 824.1,193.53 848.42,194.17 849.79,195.54 
				850.12,236.09 848.86,237.47 844.78,237.43 			"/>
			<polyline class="st7" points="816.62,317.4 823.67,276.54 849.06,276.45 847.68,259 836.02,258.85 			"/>
			<line class="st7" x1="857.23" y1="316.2" x2="848.96" y2="275.82"/>
			<path class="st7" d="M829.81,368.7"/>
			<path class="st7" d="M823.92,368.97"/>
			<path class="st7" d="M845.94,258.76l-20.62-0.49c-2.21-0.05-3.96-2.06-3.91-4.49l0.13-6.65c0.05-2.43,1.88-4.35,4.09-4.3
				l20.62,0.49c2.21,0.05,3.96,2.06,3.91,4.49l-0.13,6.65C849.97,256.88,848.15,258.81,845.94,258.76z"/>
			<path class="st7" d="M854.39,357.31"/>
			<path class="st7" d="M819.96,356.18"/>
			<g>
				<path class="st7" d="M821.6,337.95c-2.11-0.13-3.78-2.04-3.78-4.39l0-10.95c0-2.43,1.79-4.39,4-4.39l30.52,0.01
					c2.21,0,4,1.97,4,4.39l0,10.95c0,2.43-1.79,4.39-4,4.39"/>
				<polyline class="st7" points="821.23,318.27 821.16,348.34 830.38,348.06 830.5,335.78 				"/>
				<polyline class="st7" points="852.68,318.34 852.46,348.41 843.24,348.02 843.24,335.74 				"/>
				<line class="st7" x1="837.19" y1="318.22" x2="837.16" y2="337.96"/>
				<line class="st7" x1="830.12" y1="337.93" x2="843.27" y2="338.49"/>
			</g>
			<polygon class="st7" points="849.69,275.94 850.65,244.3 850.03,242.69 850.11,238.44 851.09,236.69 855.07,236.65 
				855.99,237.85 855.83,242.77 855.19,244.3 854.62,272.63 			"/>
			<polygon class="st7" points="817.02,272.76 817.42,243.54 816.53,241.65 816.67,237.34 817.71,235.4 820.96,235.68 822.03,236.9 
				821.95,241.83 821.24,243.35 821.15,275.08 			"/>
			<line class="st7" x1="831" y1="237.16" x2="829.01" y2="237.13"/>
			<path class="st7" d="M831,237.16"/>
			<polyline class="st7" points="829.01,237.13 827.82,237.11 829.84,233.78 841.63,234.12 843.95,237.38 841.02,237.33 			"/>
			<polygon class="st7" points="830.68,242.78 831.09,235.38 840.61,235.68 840.94,243.03 			"/>
			<path class="st7" d="M856.82,196.08c0,0,0.99,32.15,1.34,35.47c0.35,3.32,1.52,4.1,1.52,4.1l-2.24,2.15l-6.83-5.28l-0.24-37.47
				l2.13-4.83L856.82,196.08"/>
			<path class="st7" d="M857.02,195.59c0,0,4.6-5.28,2.8-13.05c-1.8-7.78-3.58-24.55-6.21-39.64c-0.63-3.61-6.74-13.22-21.22-11.13
				c-6.9,0.99-9.5,3.87-10.99,6.48c-2.69,4.69-9.44,46.08-9.31,47.74c0,0-0.02,4.55,0.85,6.84c0.87,2.29,2.09,4.2,2.09,4.2
				l5.43-8.58l2.44-23.48l3.23-2.43l19.72,0.93l3.66,3.6l3.16,22.63L857.02,195.59z"/>
			<path class="st7" d="M857.41,238.02"/>
			<path class="st7" d="M857.41,238.02l2.28-2.38l1.82,1.76c0,0,1.41,10.78-0.87,22.24l-2.5,1.41"/>
			<path class="st7" d="M815.19,197.14c0,0-1.23,32.14-1.61,35.45s-1.55,4.09-1.55,4.09l2.23,2.17l6.87-5.21l0.52-37.47l-2.1-4.85
				L815.19,197.14"/>
			<path class="st7" d="M814.29,239.08l-2.26-2.4l-1.84,1.74c0,0-1.49,10.76,0.71,22.25l2.48,1.44"/>
			<polygon class="st7" points="828.1,193.67 828.9,174.24 827.94,174.18 827.47,173.53 827.6,169.83 828.44,168.47 833.21,168.74 
				833.96,170.08 833.81,173.47 833.29,174.37 832.4,174.33 831.88,193.86 			"/>
			<polygon class="st7" points="839.71,193.76 840.12,174.31 839.16,174.27 838.68,173.63 838.73,169.93 839.55,168.56 
				844.32,168.7 845.1,170.03 845.02,173.42 844.51,174.33 843.62,174.31 843.49,193.85 			"/>
			<line class="st7" x1="833.81" y1="173.47" x2="838.68" y2="173.63"/>
			<line class="st7" x1="833.96" y1="170.08" x2="838.73" y2="169.93"/>
		</g>
		<g>
			<polygon class="st7" points="669.09,384.9 673.19,385.32 675.04,383.93 676.44,380.42 667.38,346.23 706.17,333.61 
				716.45,367.57 718.71,369.39 720.83,370.13 723.66,368.58 725.23,365.04 725.89,355.42 719.85,334.83 707.81,325.38 
				691.55,277.61 689.35,278.33 692.9,293.61 688.39,298.63 663.17,307.11 656.39,305.48 652.35,290.39 649.35,291.22 
				661.44,340.89 656.61,358.49 661.63,377.22 			"/>
			<polygon class="st7" points="663.13,306.79 659.41,290.39 671.03,286.31 675.35,303.02 			"/>
			<path class="st7" d="M656.94,268.76"/>
			<polyline class="st7" points="656.94,268.76 652.91,270.06 650.95,269.24 642.02,230.77 642.74,228.52 666.24,221.37 
				667.91,222.22 678.68,260.35 677.83,262.06 673.9,263.32 			"/>
			<polyline class="st7" points="667.51,347.69 663.74,306.92 688.08,298.74 682.25,282.73 671.03,286.31 			"/>
			<line class="st7" x1="706.17" y1="333.61" x2="687.82" y2="298.18"/>
			<path class="st7" d="M693.41,391.85"/>
			<path class="st7" d="M687.83,393.98"/>
			<path class="st7" d="M680.52,283.05l-19.91,6.11c-2.13,0.65-4.33-0.68-4.91-2.98l-1.59-6.31c-0.58-2.3,0.68-4.7,2.81-5.35
				l19.91-6.11c2.13-0.65,4.33,0.68,4.91,2.98l1.59,6.31C683.91,280,682.65,282.4,680.52,283.05z"/>
			<path class="st7" d="M714.06,373.28"/>
			<path class="st7" d="M680.73,383.18"/>
			<g>
				<path class="st7" d="M677.6,365.47c-2.05,0.55-4.15-0.72-4.76-2.93l-2.82-10.32c-0.63-2.29,0.59-4.71,2.71-5.42l29.28-9.72
					c2.12-0.7,4.35,0.58,4.97,2.87l2.82,10.32c0.63,2.29-0.59,4.71-2.71,5.42"/>
				<polyline class="st7" points="672.16,347.04 679.86,375.41 688.63,372.2 685.58,360.59 				"/>
				<polyline class="st7" points="702.36,337.08 709.9,365.5 700.96,368.07 697.79,356.49 				"/>
				<line class="st7" x1="687.46" y1="341.9" x2="692.53" y2="360.52"/>
				<line class="st7" x1="685.77" y1="362.74" x2="698.52" y2="359.07"/>
			</g>
			<polygon class="st7" points="688.55,298.06 681.31,267.93 680.31,266.6 679.28,262.56 679.77,260.61 683.58,259.3 684.77,260.14 
				685.89,264.83 685.67,266.47 692.43,293.37 			"/>
			<polygon class="st7" points="656.39,305.48 649.23,277.8 647.89,276.3 646.91,272.2 647.41,270.03 650.59,269.26 651.94,270.07 
				653.14,274.75 652.85,276.4 660.95,306.35 			"/>
			<line class="st7" x1="660.61" y1="267.46" x2="658.69" y2="268.06"/>
			<path class="st7" d="M660.61,267.46"/>
			<polyline class="st7" points="658.69,268.06 657.55,268.42 658.63,264.64 670.03,261.2 673.09,263.54 670.27,264.42 			"/>
			<polygon class="st7" points="661.76,272.86 660.24,265.75 669.45,262.99 671.67,269.82 			"/>
			<path class="st7" d="M674.79,220.49c0,0,9.24,30,10.44,33.01c1.2,3.01,2.52,3.38,2.52,3.38l-1.6,2.74l-7.92-2.8l-9.9-35.25
				l0.8-5.23L674.79,220.49"/>
			<path class="st7" d="M674.86,219.97c0,0,3.05-6.44-0.68-13.2c-3.74-6.76-9.77-22-16.19-35.39c-1.54-3.21-9.88-10.32-23.23-3.73
				c-6.36,3.14-8.11,6.68-8.88,9.61c-1.37,5.27,2.83,46.45,3.38,47.98c0,0,1.16,4.3,2.58,6.18s3.09,3.29,3.09,3.29l3-9.82
				l-3.72-22.91l2.47-3.32l19.16-5.41l4.44,2.23l8.87,20.33L674.86,219.97z"/>
			<path class="st7" d="M686.17,259.85"/>
			<path class="st7" d="M686.17,259.85l1.57-2.97l2.2,1.07c0,0,4.13,9.71,4.9,21.25l-2.03,2.13"/>
			<path class="st7" d="M635.12,234.77c0,0,7.11,30.69,7.6,33.94s-0.43,4.35-0.43,4.35l2.69,1.33l5.25-7.11l-9.17-35.49l-3.26-3.9
				L635.12,234.77"/>
			<path class="st7" d="M645.08,274.59l-2.79-1.54l-1.31,2.22c0,0,1.35,10.62,6.42,20.75l2.75,0.56"/>
			<polygon class="st7" points="646.61,227.38 642.37,208.81 641.43,209.05 640.81,208.59 639.98,205.06 640.44,203.52 
				645.08,202.24 646.15,203.27 646.88,206.51 646.61,207.53 645.75,207.77 650.29,226.35 			"/>
			<polygon class="st7" points="657.77,223.76 653.16,205.29 652.22,205.56 651.59,205.11 650.69,201.6 651.12,200.05 
				655.74,198.67 656.82,199.67 657.62,202.89 657.37,203.91 656.51,204.18 661.43,222.64 			"/>
			<line class="st7" x1="646.88" y1="206.51" x2="651.59" y2="205.11"/>
			<line class="st7" x1="646.15" y1="203.27" x2="650.69" y2="201.6"/>
		</g>
		<g>
			<polygon class="st7" points="622.14,424.6 625.91,424.09 627.29,422.59 627.83,419.5 612.71,394.09 645.01,375.93 661.18,400.89 
				663.58,401.88 665.64,402.03 667.87,400.2 668.56,397.05 667.19,389.23 657.56,374.05 644.81,369.03 620.45,334.27 
				618.61,335.31 624.92,346.77 621.89,351.72 600.95,363.74 594.52,363.86 587.8,352.65 585.28,353.94 606.28,391.07 
				605.53,406.12 613.86,420.03 			"/>
			<polygon class="st7" points="600.85,363.49 594.15,351.18 603.77,345.5 611.06,357.94 			"/>
			<path class="st7" d="M587.52,334.43"/>
			<polyline class="st7" points="587.52,334.43 584.17,336.3 582.23,336.06 566.36,307.22 566.55,305.27 586.22,294.66 587.89,295 
				605.36,323.18 604.94,324.72 601.66,326.55 			"/>
			<polyline class="st7" points="613.13,395.23 601.42,363.47 621.63,351.87 613.13,340.31 603.77,345.5 			"/>
			<line class="st7" x1="645.01" y1="375.93" x2="621.29" y2="351.47"/>
			<path class="st7" d="M645.42,425.08"/>
			<path class="st7" d="M640.83,427.95"/>
			<path class="st7" d="M611.64,340.92l-16.65,9.03c-1.78,0.97-4.03,0.36-5.02-1.36l-2.72-4.71c-0.99-1.72-0.35-3.89,1.44-4.86
				l16.65-9.03c1.78-0.97,4.03-0.36,5.02,1.36l2.72,4.71C614.06,337.78,613.42,339.96,611.64,340.92z"/>
			<path class="st7" d="M660.19,405.95"/>
			<path class="st7" d="M632.25,420.81"/>
			<g>
				<path class="st7" d="M625.82,407.32c-1.73,0.87-3.88,0.29-4.87-1.35l-4.64-7.65c-1.03-1.7-0.43-3.88,1.33-4.89l24.34-13.87
					c1.76-1,4.03-0.44,5.05,1.25l4.64,7.65c1.03,1.7,0.43,3.88-1.33,4.89"/>
				<polyline class="st7" points="617.17,393.74 629.88,414.78 637.11,410.4 632,401.76 				"/>
				<polyline class="st7" points="642.29,379.5 654.87,400.61 647.36,404.53 642.14,395.95 				"/>
				<line class="st7" x1="629.88" y1="386.45" x2="638.24" y2="400.26"/>
				<line class="st7" x1="632.61" y1="403.44" x2="643.33" y2="397.85"/>
			</g>
			<polygon class="st7" points="621.92,351.23 609.27,328.68 608.09,327.83 606.35,324.83 606.38,323.16 609.55,321.33 
				610.78,321.74 612.75,325.25 612.88,326.61 624.45,346.67 			"/>
			<polygon class="st7" points="594.52,363.86 582.44,343.26 580.93,342.34 579.21,339.27 579.21,337.43 581.92,336.15 
				583.3,336.52 585.33,340 585.41,341.38 598.79,363.6 			"/>
			<line class="st7" x1="590.56" y1="332.63" x2="588.96" y2="333.51"/>
			<path class="st7" d="M590.56,332.63"/>
			<polyline class="st7" points="588.96,333.51 588,334.03 588.2,330.79 597.75,325.66 600.98,326.89 598.62,328.19 			"/>
			<polygon class="st7" points="592.7,336.7 589.88,331.34 597.6,327.22 600.98,332.21 			"/>
			<path class="st7" d="M593.73,292.18c0,0,14.43,22.02,16.12,24.17c1.69,2.16,2.95,2.17,2.95,2.17l-0.88,2.52l-7.69-0.58
				l-16.09-26.07l-0.35-4.34L593.73,292.18"/>
			<path class="st7" d="M593.68,291.75c0,0,1.43-5.78-3.3-10.39c-4.74-4.61-13.27-15.52-21.77-24.88
				c-2.04-2.24-10.98-6.18-21.65,1.86c-5.08,3.83-5.93,7.02-6.02,9.52c-0.16,4.5,12.02,36.49,12.83,37.59c0,0,1.92,3.19,3.58,4.39
				c1.66,1.21,3.45,1.98,3.45,1.98l0.69-8.46l-8.01-17.52l1.55-3.17l16.12-8.31l4.45,0.85l12.12,14.38L593.68,291.75z"/>
			<path class="st7" d="M611.99,321.22"/>
			<path class="st7" d="M611.99,321.22l0.81-2.7l2.2,0.4c0,0,5.69,6.89,8.74,15.94l-1.39,2.12"/>
			<path class="st7" d="M560.97,311.84c0,0,12.66,23.02,13.76,25.51c1.1,2.49,0.5,3.56,0.5,3.56l2.69,0.5l3.27-6.77l-15.48-26.42
				l-3.73-2.44L560.97,311.84"/>
			<path class="st7" d="M578.05,341.56l-2.82-0.65l-0.73,2.05c0,0,3.38,8.2,10,15.23l2.59-0.13"/>
			<polygon class="st7" points="569.8,303.55 562.19,289.61 561.4,290 560.75,289.76 559.28,287.12 559.38,285.79 563.29,283.8 
				564.46,284.4 565.78,286.84 565.75,287.7 565.02,288.08 572.89,301.96 			"/>
			<polygon class="st7" points="579.09,298.33 571.17,284.56 570.39,284.96 569.73,284.74 568.21,282.12 568.27,280.8 
				572.15,278.73 573.32,279.3 574.7,281.71 574.68,282.57 573.97,282.97 582.15,296.68 			"/>
			<line class="st7" x1="565.78" y1="286.84" x2="569.73" y2="284.74"/>
			<line class="st7" x1="564.46" y1="284.4" x2="568.21" y2="282.12"/>
		</g>
	</g>
	<circle class="st6" cx="870.36" cy="362.26" r="7.19"/>
	<polyline class="st6" points="876.29,365.88 898.92,472.2 887.32,466.28 866.64,367.91 	"/>
	<line class="st6" x1="875.84" y1="365.98" x2="876.29" y2="365.88"/>
	<path class="st6" d="M866.73,368.33"/>
	<path class="st6" d="M633.87,423l37.87-21.4c0,0,2-0.64,3.29,1.38s7.65,30.66,7.4,32.54c-0.25,1.89-48.56,27.71-49.61,27.53
		c-1.05-0.18-6.61-33.14-5.06-35.14C629.32,425.91,633.87,423,633.87,423z"/>
	<path class="st6" d="M685.76,435.14c0,0-8.95-30.21-8.8-35.28c0.15-5.07,68.15-29.41,86.22-32.69c18.06-3.28,39.13-0.52,49.34-0.48
		c10.21,0.04-28.65,66.23-28.65,66.23s-103.94,44.7-111.88,42.21c-7.94-2.49-14.53-6.34-14.53-6.34s-19.26,9.56-20.66,6.92
		c-1.39-2.64-3.32-4.81-2.62-7.94c0.7-3.13,49.81-28.33,50.86-29.15C686.09,437.8,685.76,435.14,685.76,435.14z"/>
	<path class="st6" d="M881.99,465.01c2.09-3.74-4.57-46.37-12.96-48.12c-8.39-1.76-53.33,56.35-48.37,59.49
		C825.61,479.52,881.99,465.01,881.99,465.01z"/>
	<path class="st6" d="M866.09,411.9c1.02-3-1.48-5.67-1.48-5.67s-31.73,3.67-34.38,5.67c-2.64,2,3.37,29.92,5.78,31.05
		C838.43,444.08,866.09,411.9,866.09,411.9z"/>
	<path class="st6" d="M818.89,407.45c1.32,2.65,50.02-3.37,49.69-5.54c-0.33-2.17-2.81-28.05-4.58-30.34
		c-1.77-2.29-23.63-10.11-25.7-8.91c-2.07,1.2-20.3,41.4-20.4,42.37C817.8,406,818.89,407.45,818.89,407.45z"/>
	<circle class="st6" cx="823.93" cy="432.86" r="3.03"/>
	<path class="st6" d="M685.25,479.89c1.28-3.35,95.91-44.04,99.64-43.03c3.73,1,3.32,5.27,2.96,7.79c-0.35,2.51-30.5,65.1-30.5,65.1
		l8.6,8.46l-28.3,59.74c0,0-42.41-17.55-43.64-19.23C692.78,557.03,685.25,479.89,685.25,479.89z"/>
	<path class="st6" d="M646.34,491.15c0,0,23.5-8.04,25.24-8.6c1.74-0.56,9.89,3.23,10.34,4.62s9.14,67.96,9.14,67.96
		s2.67,9.09,5.63,9.84c2.97,0.75,16.89,5.15,16.89,5.15l-6.11,14.23l-36.42-19.43L646.34,491.15z"/>
	<path class="st6" d="M780.17,551.42l21.24,31.1c0,0,22.45,0.5,31.44,3.51c8.99,3.01,22.21,21.57,25.89,22.58
		c3.67,1,51.83-46.66,58.86-57.19c7.02-10.54,19.51-33.78,21.57-36.62c1.35-1.87-1.17-3.37-1.17-3.37s-12.54,10.31-22.91,3.87
		c-10.55-6.55-7.02-13.55-8.53-18.56s-3.76-6.57-3.76-6.57s-5.27,3.56-10.29,1.05c-5.02-2.51-15.56-9.39-15.56-9.39
		s-0.3-2.1,1.5-5.8c1.89-3.89-45.4,9.67-52.29,13.18c-6.89,3.51-25.37,16.56-31.68,26.09C788.17,524.84,780.17,551.42,780.17,551.42
		z"/>
	<path class="st6" d="M920.94,515.26c-2.91-11.04,17.43-46.13,20.78-46.06c3.34,0.07,7.09,19.63,7.34,21.59
		c0.25,1.95-8.06,18.55-10.73,20.74c-1.5,1.23-14.42,5.58-15.71,5.25C921.34,516.45,920.94,515.26,920.94,515.26z"/>
	<path class="st6" d="M637.8,477.64c1.2-0.5,5.35-0.25,5.35-0.25l15.7-6.06c0,0,1.6,0.31,1.9,1.41s-0.35,10.5-0.55,10.9
		c-0.2,0.4-15.81,6.26-16.71,5.46C642.59,488.3,637.8,477.64,637.8,477.64z"/>
	<polyline class="st6" points="877.55,478.23 885.25,465.14 906.65,477.01 908.85,478.23 902.8,490.17 	"/>
	<line class="st6" x1="899.79" y1="490.87" x2="906.65" y2="477.01"/>
	<path class="st6" d="M796.85,446.78c0,0,7.6-3.04,11.2-1.04c3.6,2,9.84,4.6,9.84,4.6s2.56,1.6,3.36,3.4c0.8,1.8,2.74,6,2.67,8
		c-0.07,2-7.53,23.4-9.7,24c-2.17,0.6-6.37,2.6-7.37,1.8c-1-0.8-4.8-6-8.8-7.6s-12-3.75-13.96-2.44
		C783.36,477.99,796.85,446.78,796.85,446.78z"/>
	<path class="st6" d="M824.17,362.26"/>
	<path class="st6" d="M823.93,363.07l-3.96,10.21l-7.45,3.29l-8.51,19.31l3.05,9.32l-9.9,3.93l-4.19,7.71c0,0,13.95-5.94,14.62-5.46
		c0.67,0.48-0.53-0.19,0.67,0.48c1.2,0.67,5.81,14.27,5.97,15.47s0.7,2.4-1.57,2.93c-2.27,0.53-23.6-6.39-23.6-6.39l-3.14,5.52
		c0,0,11.41,2.6,11.41,4.06s-0.67,1.2-1.47,1.73c-0.8,0.53-8.65,3.04-8.65,3.04l2.78,5.89l-29.71,68.48l5.98,4.86
		c10.4-24.71,22.13-52.36,32.53-77.07l16-5.47c0,0,6.21,3.67,9.14,3.6c2.93-0.07,4.93-1.53,5.33-2.73c0.4-1.2,1.33-3.07,0.87-4.47
		s-2-2.93-2-2.93l-5.07-2.67l-8.13-21.2l16.93-37.87"/>
	<path class="st6" d="M831.42,366.52c2.75-0.79,4.75-3.32,4.75-6.33c0-3.64-2.95-6.58-6.58-6.58c-3.64,0-6.58,2.95-6.58,6.58
		c0,1.25,0.35,2.42,0.95,3.42"/>
	<circle class="st6" cx="829.42" cy="360.21" r="4.03"/>
	<circle class="st6" cx="868.58" cy="407.73" r="7.19"/>
	<path class="st6" d="M708.25,583.78c0,0,5.21-13.19,6.06-13.44c0.85-0.25,16.91,6.85,17.55,7.6c0.64,0.75-4.47,13.55-5.11,14.19
		c-0.64,0.65-17.66-6.56-17.97-7.1S708.25,583.78,708.25,583.78z"/>
	<path class="st6" d="M750.36,551.1c0,0,17.89,7.43,20.29,11.43c2.4,4,3.6,9.6,3.6,9.6s2,3.6,4,4c2,0.4,6.6-5.53,6.8-11.4
		c0.2-5.87-3.8-9.26-6.4-13.63c-2.6-4.37-22.23-12.78-22.23-12.78L750.36,551.1z"/>
	<path class="st6" d="M802.73,506.41c-0.81-1.13-1.13-1.55-1.85-2.76c-2.6-4.37-22.23-12.78-22.23-12.78l-6.06,12.78
		c0,0,17.89,7.43,20.29,11.43c0.45,0.75,0.31,0.41,0.68,1.23"/>
	<path class="st6" d="M802.45,506.2"/>
	<path class="st6" d="M807.03,519.39"/>
	<path class="st6" d="M793.71,516.53"/>
	<path class="st6" d="M757.25,534.75"/>
	<path class="st6" d="M765.65,518.83c2.73-0.68,5.09-0.78,7.55-0.53c5.06,0.52,16.31,6.81,16.31,6.81l-5,13.08
		c0,0-10.86-7.12-15.49-6.58l-10.37,1.99"/>
	<path class="st6" d="M764.98,518.83"/>
	<path class="st6" d="M759.66,531.19c0,0,10.67-2.67,11.2-2.53c0.53,0.13,14.66,6.66,14.66,6.66l-0.66,1.87"/>
	<path class="st6" d="M773.41,501.24c0,0,18.69,9.3,18.99,9.6s2.84,3.37,2.84,3.37l-1.54,2.33"/>
	
		<ellipse transform="matrix(0.4356 -0.9001 0.9001 0.4356 81.6789 1130.0055)" class="st6" cx="941.96" cy="499.87" rx="11.36" ry="3.06"/>
	<polygon class="st6" points="905.55,476.18 920.66,447.33 917.32,445.36 902.39,473.87 	"/>
	<polygon class="st6" points="892.94,469.43 908.05,440.58 904.72,438.61 889.79,467.12 	"/>
	<path class="st6" d="M904.45,438.14c0,0-1.23-3.68,0-4.88c1.23-1.2,2.53-1.7,3.33-1.7c0.8,0,17.2,9,17.2,9s2.6,2.4,0.6,4.9
		s-5.2,1.39-5.2,1.39L904.45,438.14z"/>
	<circle class="st6" cx="922.49" cy="443.51" r="2.09"/>
	<line class="st6" x1="900.42" y1="473.55" x2="904.16" y2="448.02"/>
	<polyline class="st6" points="912.05,499.09 908.05,490.85 910.05,489.85 914.32,496.92 918.39,494.47 914.32,488.02 
		916.25,486.92 920.52,493 924.25,493 	"/>
	<path class="st6" d="M923.05,516.79c0,0-2.42,0.5-3.02,0.41s-1.43-3.29-1.43-3.29c-2.91-11.04,17.43-46.13,20.78-46.06
		c0,0,1.37-0.4,1.72,0c0.35,0.4,1.1,1.15,1.1,1.15"/>
	<path class="st6" d="M944.01,474.85c2.11,0.95,4.16,3.89,4.61,2.06c0.45-1.83,2.73-8.78,5-15.05s0.23-10.53,0-21.34
		c-0.04-1.73,0.18-3.1-0.41-3.65c-1.97-1.85-1.7-1.49-2.68-2.19c-0.72-0.52-1.37-1.7-1.68-5.06c-0.91-9.69,0-9.5,0.23-14.7
		c0.23-5.21-5.07-15.19-5.07-15.19l-7.89,13.51v18.58l4.97,7.86l-2.04,26.5c0,0,0.7-1.68,3.31,1.84
		C944.99,471.52,944.01,474.85,944.01,474.85z"/>
	<path class="st6" d="M906.65,391.87c-0.93,1.87,0,7.85,0,7.85l6.53-1.99l-1.66-10.13L906.65,391.87z"/>
	<path class="st6" d="M913.19,387.6c0.8,2.67,1.94,10.13,1.94,10.13s6.07,0.53,5.53,0c-0.54-0.53,0.03-10.13,0.03-10.13
		s-1.23,0.24-2.37-2.28c-1.14-2.52-3.2-2.25-3.2-2.25L913.19,387.6z"/>
	<path class="st6" d="M920.66,397.74l4.8,2.8l3.8-12.93l-4.3-4.54c0,0-0.7,0.65-1.5,2.26c-0.8,1.61-2.76,2.28-2.76,2.28
		L920.66,397.74z"/>
	<path class="st6" d="M926.65,400.93c0,0,3,2.8,5.2,3.4c2.2,0.6,8.6-6.36,8.6-6.36l-10.2-9.94L926.65,400.93z"/>
	<path class="st6" d="M941.85,397.97l2,1.1c0,0,0-1.86,0.93-3.06c0.93-1.2,1.2-2.34,1.2-2.34s-4-26.74-3.2-31.4
		c0.8-4.66,0.8-7.86,0.13-8.79c-0.67-0.93,0.27-3.47-4.13-6.13c-4.4-2.67-17.33-3.73-19.07-3.47s-11.73,16.27-13.07,19.47
		s-2.96,24.8-2.75,26.4c0.21,1.6,1.01,2.06,1.01,2.06l7.6-5.53l2.6-4.27c0,0,2.06,0.65,2.6,1.06s0.45,4.41,1.76,4.01
		s2.63-0.16,3.01-0.53c0.38-0.37,2.45-4.27,2.45-4.27L941.85,397.97z"/>
	<path class="st6" d="M903.89,489.6l12.27-5.66l6.33-3.61c0,0,3.97-23.8,9.57-32.32c5.6-8.52,3.8-8.68,3.8-8.68l-5.59-18.46h-7.78
		v17.73l-1.83-0.4l-1.07-18.34l-5.07-2.27l1.63,18.18l-3.37-1.79l-1.26-17.15l-4.87-1.93l1.13,16.65"/>
	<ellipse class="st6" cx="945.41" cy="435.88" rx="4.2" ry="10.01"/>
	<polygon class="st6" points="906.65,414.92 911.35,413.44 930.26,420.88 922.49,420.88 	"/>
	<path class="st6" d="M907.9,463.36c0,0,2.06-14.47,2.96-15.35c0.9-0.88,4.27,0.92,4.27,0.92"/>
	<path class="st6" d="M918.87,450.74c0,0,3.15,0.85,3.61,1.52c0.47,0.68-5.03,24.61-5.03,25.39s-10.4-3.45-10.4-3.45"/>
	<line class="st6" x1="906.65" y1="399.72" x2="908.05" y2="414.04"/>
	<path class="st6" d="M909.71,408.11c-2.06,1.85,0,4.43,0,4.43l20.04,6.51c0,0-0.9-0.29-1.1-2.2s0.92-2.91,1.61-2.81
		c0.69,0.1,1.89,1.1,1.89,2c0,0.9-0.1,2.52-0.9,3.01s12.3-19.32,12.3-19.32l-2.34-1.75l-11.96,16.06L909.71,408.11z"/>
</g>
<g id="Layer_3" class="st0">
	<linearGradient id="SVGID_1_" gradientUnits="userSpaceOnUse" x1="924.1512" y1="299.6034" x2="1306.4055" y2="299.6034">
		<stop  offset="0" style="stop-color:#0065FF"/>
		<stop  offset="1" style="stop-color:#00FFFF"/>
	</linearGradient>
	<polyline class="st8" points="924.96,346.1 992,255.24 1306.4,253.52 	"/>
	<linearGradient id="SVGID_2_" gradientUnits="userSpaceOnUse" x1="843.584" y1="708.644" x2="935.3702" y2="708.644">
		<stop  offset="0" style="stop-color:#0065FF"/>
		<stop  offset="1" style="stop-color:#00FFFF"/>
	</linearGradient>
	<polyline class="st9" points="934.99,811.9 844.59,774.52 844.97,604.46 	"/>
	<linearGradient id="SVGID_3_" gradientUnits="userSpaceOnUse" x1="242.23" y1="198.5361" x2="537.8234" y2="198.5361">
		<stop  offset="0" style="stop-color:#0065FF"/>
		<stop  offset="1" style="stop-color:#00FFFF"/>
	</linearGradient>
	<polyline class="st10" points="537.07,229.27 485.25,169.29 242.23,168.15 	"/>
	<linearGradient id="SVGID_4_" gradientUnits="userSpaceOnUse" x1="515.5196" y1="260.7317" x2="593.3057" y2="260.7317">
		<stop  offset="0" style="stop-color:#0065FF"/>
		<stop  offset="1" style="stop-color:#00FFFF"/>
	</linearGradient>
	<polygon class="st11" points="573.28,228.05 535.54,228.05 516.67,260.73 535.54,293.41 573.28,293.41 592.15,260.73 	"/>
	<linearGradient id="SVGID_5_" gradientUnits="userSpaceOnUse" x1="603.7869" y1="157.5336" x2="681.573" y2="157.5336">
		<stop  offset="0" style="stop-color:#0065FF"/>
		<stop  offset="1" style="stop-color:#00FFFF"/>
	</linearGradient>
	<polygon class="st12" points="661.55,124.85 623.81,124.85 604.94,157.53 623.81,190.22 661.55,190.22 680.42,157.53 	"/>
	<linearGradient id="SVGID_6_" gradientUnits="userSpaceOnUse" x1="697.7694" y1="124.8512" x2="775.5555" y2="124.8512">
		<stop  offset="0" style="stop-color:#0065FF"/>
		<stop  offset="1" style="stop-color:#00FFFF"/>
	</linearGradient>
	<polygon class="st13" points="755.53,92.17 717.79,92.17 698.92,124.85 717.79,157.53 755.53,157.53 774.4,124.85 	"/>
	<linearGradient id="SVGID_7_" gradientUnits="userSpaceOnUse" x1="798.2929" y1="118.4441" x2="876.079" y2="118.4441">
		<stop  offset="0" style="stop-color:#0065FF"/>
		<stop  offset="1" style="stop-color:#00FFFF"/>
	</linearGradient>
	<polygon class="st14" points="856.06,85.76 818.32,85.76 799.45,118.44 818.32,151.13 856.06,151.13 874.92,118.44 	"/>
	<linearGradient id="SVGID_8_" gradientUnits="userSpaceOnUse" x1="890.3604" y1="341.905" x2="968.1465" y2="341.905">
		<stop  offset="0" style="stop-color:#0065FF"/>
		<stop  offset="1" style="stop-color:#00FFFF"/>
	</linearGradient>
	<polygon class="st15" points="948.12,309.22 910.38,309.22 891.52,341.9 910.38,374.59 948.12,374.59 966.99,341.9 	"/>
	<linearGradient id="SVGID_9_" gradientUnits="userSpaceOnUse" x1="641.0178" y1="83.3256" x2="643.1433" y2="83.3256">
		<stop  offset="0" style="stop-color:#0065FF"/>
		<stop  offset="1" style="stop-color:#00FFFF"/>
	</linearGradient>
	<line class="st16" x1="642.02" y1="124.85" x2="642.14" y2="41.8"/>
	<linearGradient id="SVGID_10_" gradientUnits="userSpaceOnUse" x1="735.651" y1="53.2901" x2="1040" y2="53.2901">
		<stop  offset="0" style="stop-color:#0065FF"/>
		<stop  offset="1" style="stop-color:#00FFFF"/>
	</linearGradient>
	<polyline class="st17" points="737.53,92.17 736.66,15.4 1040,15.4 	"/>
	<linearGradient id="SVGID_11_" gradientUnits="userSpaceOnUse" x1="874.9243" y1="141.6946" x2="1293.6045" y2="141.6946">
		<stop  offset="0" style="stop-color:#0065FF"/>
		<stop  offset="1" style="stop-color:#00FFFF"/>
	</linearGradient>
	<polyline class="st18" points="874.92,118.44 1093.6,118.44 1136,164.25 1293.6,164.95 	"/>
</g>
<g id="Layer_4">
	<linearGradient id="SVGID_12_" gradientUnits="userSpaceOnUse" x1="0" y1="358.1864" x2="1366" y2="358.1864">
		<stop  offset="0.1218" style="stop-color:#33BFFF"/>
		<stop  offset="0.5508" style="stop-color:#3A89E8"/>
		<stop  offset="0.9269" style="stop-color:#2A6AC6"/>
	</linearGradient>
	<polyline class="st19" points="196.14,172.19 0,172.19 0,477.19 0,477.19 189.94,477.19 291.21,544.19 1169.86,544.19 1366,544.19 
		1366,239.19 487.36,239.19 386.08,172.19 196.14,172.19 196.14,172.19 	"/>
</g>
</svg>
